<svg id="visual" viewBox="0 0 960 540" width="960" height="540" xmlns="http://www.w3.org/2000/svg" xmlns:xlink="http://www.w3.org/1999/xlink" version="1.1"><g transform="translate(473.0094017948878 300.1465324161131)"><path d="M82.4 -127.4C111.9 -92 144.4 -74.7 163.8 -45.9C183.2 -17.1 189.6 23.3 177.2 56.5C164.9 89.6 133.9 115.6 101.2 135.7C68.6 155.7 34.3 169.9 6.9 160.4C-20.6 151 -41.1 118 -76.8 98.9C-112.5 79.8 -163.2 74.7 -169 55.3C-174.8 35.9 -135.5 2.3 -117.9 -34.1C-100.3 -70.5 -104.2 -109.7 -88.2 -149.5C-72.1 -189.2 -36.1 -229.6 -4.8 -223C26.5 -216.4 52.9 -162.8 82.4 -127.4" fill="#f1f1f1"></path></g></svg>