<?xml version="1.0" standalone="no"?>
<svg viewBox="0 0 200 200" xmlns="http://www.w3.org/2000/svg">
  <path fill="#F2F4F8" d="M30.7,-54.6C43.4,-45.9,59.7,-44.9,71.4,-37.1C83.1,-29.3,90.1,-14.6,88.1,-1.2C86.1,12.3,75.1,24.7,66.3,37.5C57.5,50.2,50.9,63.5,40.2,65.8C29.5,68.1,14.8,59.4,-0.9,61C-16.6,62.7,-33.3,74.6,-42.7,71.5C-52.1,68.5,-54.2,50.5,-60,36.1C-65.9,21.7,-75.4,10.8,-76.6,-0.6C-77.7,-12.1,-70.4,-24.3,-61.2,-32.9C-52,-41.5,-40.9,-46.5,-30.4,-56.5C-19.9,-66.4,-9.9,-81.2,-0.5,-80.4C9,-79.6,18,-63.3,30.7,-54.6Z" transform="translate(100 100)" />
</svg>
