<svg id="visual" viewBox="0 0 960 540" width="960" height="540" xmlns="http://www.w3.org/2000/svg" xmlns:xlink="http://www.w3.org/1999/xlink" version="1.1"><g transform="translate(466.1025842864939 279.4710116158592)"><path d="M41.1 -78.7C53.5 -64 64 -53.5 79.3 -41.1C94.7 -28.7 114.8 -14.3 119.3 2.6C123.8 19.5 112.5 39 97.1 51.2C81.6 63.4 61.9 68.2 45 73.6C28.1 79.1 14.1 85 -3 90.2C-20 95.3 -40 99.6 -55.4 93.4C-70.9 87.1 -81.8 70.3 -87.3 53C-92.8 35.7 -92.9 17.8 -92.2 0.4C-91.4 -17 -89.9 -34 -83.2 -49.3C-76.6 -64.6 -64.8 -78.2 -50.1 -91.5C-35.3 -104.9 -17.7 -117.9 -1.7 -115C14.3 -112.2 28.7 -93.3 41.1 -78.7" fill="#f6f6f6"></path></g></svg>