<svg id="visual" viewBox="0 0 960 540" width="960" height="540" xmlns="http://www.w3.org/2000/svg" xmlns:xlink="http://www.w3.org/1999/xlink" version="1.1"><rect x="0" y="0" width="960" height="540" fill="#931C1C"></rect><path d="M0 432L69 395L137 447L206 393L274 430L343 349L411 391L480 349L549 355L617 413L686 379L754 384L823 391L891 426L960 373L960 541L891 541L823 541L754 541L686 541L617 541L549 541L480 541L411 541L343 541L274 541L206 541L137 541L69 541L0 541Z" fill="#f5730a"></path><path d="M0 417L69 386L137 429L206 395L274 386L343 441L411 444L480 430L549 421L617 416L686 460L754 451L823 429L891 423L960 438L960 541L891 541L823 541L754 541L686 541L617 541L549 541L480 541L411 541L343 541L274 541L206 541L137 541L69 541L0 541Z" fill="#e3630a"></path><path d="M0 478L69 421L137 412L206 410L274 463L343 428L411 476L480 474L549 405L617 466L686 452L754 446L823 401L891 398L960 456L960 541L891 541L823 541L754 541L686 541L617 541L549 541L480 541L411 541L343 541L274 541L206 541L137 541L69 541L0 541Z" fill="#d15308"></path><path d="M0 461L69 477L137 490L206 462L274 475L343 423L411 442L480 448L549 465L617 487L686 470L754 434L823 481L891 432L960 490L960 541L891 541L823 541L754 541L686 541L617 541L549 541L480 541L411 541L343 541L274 541L206 541L137 541L69 541L0 541Z" fill="#be4407"></path><path d="M0 456L69 461L137 476L206 477L274 450L343 495L411 453L480 488L549 477L617 482L686 482L754 475L823 460L891 491L960 474L960 541L891 541L823 541L754 541L686 541L617 541L549 541L480 541L411 541L343 541L274 541L206 541L137 541L69 541L0 541Z" fill="#ac3505"></path><path d="M0 495L69 517L137 511L206 515L274 486L343 517L411 517L480 490L549 508L617 496L686 487L754 502L823 488L891 515L960 475L960 541L891 541L823 541L754 541L686 541L617 541L549 541L480 541L411 541L343 541L274 541L206 541L137 541L69 541L0 541Z" fill="#992503"></path><path d="M0 497L69 528L137 529L206 520L274 524L343 512L411 494L480 527L549 518L617 524L686 503L754 528L823 524L891 521L960 506L960 541L891 541L823 541L754 541L686 541L617 541L549 541L480 541L411 541L343 541L274 541L206 541L137 541L69 541L0 541Z" fill="#871400"></path></svg>